# Blender 3.1.0
# www.blender.org
mtllib Reflex_East.mtl
o Reflex_East
v -0.023656 0.007933 0.023284
v -0.023656 0.007195 0.021501
v -0.023656 0.007933 0.019719
v -0.023656 0.009716 0.018980
v -0.023655 0.009716 0.024022
v -0.023656 0.011499 0.023284
v -0.023656 0.012237 0.021501
v -0.023656 0.011499 0.019719
v 0.023655 0.009716 0.024022
v 0.023655 0.007933 0.023284
v 0.023655 0.011499 0.023284
v 0.023655 0.007195 0.021501
v 0.023655 0.007933 0.019719
v 0.023655 0.009716 0.018980
v 0.023655 0.012237 0.021501
v 0.023655 0.011499 0.019719
v -0.032363 0.003887 0.004252
v -0.026270 0.005602 0.005967
v -0.032363 0.005546 0.000246
v -0.026270 0.007972 0.000246
v -0.032363 0.003887 -0.003760
v -0.026270 0.005602 -0.005475
v -0.032363 -0.000119 -0.005419
v -0.026270 -0.000119 -0.007845
v -0.026270 -0.000119 0.008337
v -0.032363 -0.000119 0.005911
v -0.026270 -0.005840 0.005967
v -0.032363 -0.004125 0.004252
v -0.026270 -0.008210 0.000246
v -0.032363 -0.005785 0.000246
v -0.026270 -0.005840 -0.005475
v -0.032363 -0.004125 -0.003760
v -0.026783 0.003832 0.004197
v -0.026783 0.005469 0.000246
v -0.026783 0.003832 -0.003705
v -0.026783 -0.000119 -0.005342
v -0.026783 -0.000119 0.005834
v -0.026783 -0.004071 0.004197
v -0.026783 -0.005707 0.000246
v -0.026783 -0.004071 -0.003705
v 0.027677 0.003832 0.004197
v 0.027677 0.005469 0.000246
v 0.027677 0.003832 -0.003705
v 0.027677 -0.000119 -0.005342
v 0.027677 -0.000119 0.005834
v 0.027677 -0.004071 0.004197
v 0.027677 -0.005707 0.000246
v 0.027677 -0.004071 -0.003705
v -0.034078 -0.000119 0.008337
v -0.034078 0.005602 0.005967
v -0.034078 -0.005840 0.005967
v -0.034078 0.007972 0.000246
v -0.034078 0.005602 -0.005475
v -0.034078 -0.000119 -0.007845
v -0.034078 -0.008210 0.000246
v -0.034078 -0.005840 -0.005475
v 0.023883 -0.006339 0.029460
v 0.023883 -0.006339 -0.027526
v 0.023883 0.006452 0.029460
v 0.023883 0.006452 -0.027526
v 0.012211 0.011079 -0.015815
v 0.018224 0.012739 0.029460
v -0.023883 -0.006339 0.029460
v -0.023883 -0.006339 -0.027526
v -0.023883 0.006452 0.029460
v -0.023883 0.006452 -0.027526
v -0.012212 0.011079 -0.015815
v -0.018225 0.012739 0.029460
v 0.018114 0.023280 -0.026111
v 0.018114 0.023280 -0.004395
v 0.018224 0.010625 -0.026111
v 0.018224 0.010625 -0.004395
v -0.018225 0.010625 -0.026111
v -0.018225 0.010625 -0.004395
v -0.018114 0.023280 -0.026111
v -0.018114 0.023280 -0.004395
v -0.014567 0.033612 -0.026111
v 0.014566 0.033612 -0.026111
v 0.014566 0.033612 -0.004395
v -0.014567 0.033612 -0.004395
v 0.014142 0.022572 -0.026111
v 0.014142 0.022572 -0.004395
v 0.014142 0.010625 -0.026111
v 0.014142 0.010625 -0.004395
v -0.014142 0.010625 -0.026111
v -0.014142 0.010625 -0.004395
v -0.014142 0.022572 -0.026111
v -0.014142 0.022572 -0.004395
v -0.012268 0.029512 -0.026111
v 0.012267 0.029512 -0.026111
v 0.012267 0.029512 -0.004395
v -0.012268 0.029512 -0.004395
v 0.014584 0.010312 -0.007588
v -0.014585 0.010312 -0.007588
v -0.014585 0.030143 -0.007588
v 0.014584 0.030143 -0.007588
v 0.014584 0.010312 -0.022435
v -0.014585 0.010312 -0.022435
v -0.014585 0.030143 -0.022435
v 0.014584 0.030143 -0.022435
v 0.012211 0.011079 0.008456
v 0.023883 0.006452 0.023697
v -0.012212 0.011079 0.008456
v -0.023883 0.006452 0.023697
v 0.018224 0.012739 0.014072
v -0.018225 0.012739 0.014072
v -0.018225 0.011079 -0.027526
v 0.018224 0.011079 -0.027526
v 0.018224 0.011079 0.010108
v -0.018225 0.011079 0.010108
v 0.002128 0.022573 -0.015237
v 0.003671 0.021979 -0.015237
v 0.003671 0.019115 -0.015237
v 0.002128 0.018521 -0.015237
v 0.001019 0.019576 -0.015237
v 0.001421 0.020547 -0.015237
v 0.001019 0.021518 -0.015237
v 0.003226 0.020001 -0.015237
v 0.003226 0.021093 -0.015237
v -0.002128 0.022573 -0.015237
v -0.003671 0.021979 -0.015237
v -0.003671 0.019115 -0.015237
v -0.002128 0.018521 -0.015237
v -0.001019 0.019576 -0.015237
v -0.001421 0.020547 -0.015237
v -0.001019 0.021518 -0.015237
v -0.003226 0.020001 -0.015237
v -0.003226 0.021093 -0.015237
vn -0.0000 1.8478 0.7654
vn -2.0000 -0.0000 -0.0000
vn -0.0000 -0.7654 1.8478
vn -0.0000 0.7654 1.8478
vn -0.0000 0.7654 -1.8478
vn -0.0000 -1.8478 0.7654
vn -0.0000 -1.8478 -0.7654
vn -0.0000 -0.7654 -1.8478
vn 2.0000 -0.0000 -0.0000
vn -0.0000 1.8478 -0.7654
vn -1.5882 -0.4652 -1.1230
vn -1.5882 0.4652 -1.1230
vn -1.5882 -1.1230 -0.4652
vn -1.5882 -1.1230 0.4652
vn -1.5882 -0.4652 1.1230
vn -1.5882 1.1230 -0.4652
vn -1.5882 1.1230 0.4652
vn -1.5882 0.4652 1.1230
vn -0.0000 -0.0000 -2.0000
vn -0.0000 -0.0000 2.0000
vn 1.4866 1.3379 -0.0000
vn -0.0000 -2.0000 -0.0000
vn -1.4866 1.3379 -0.0000
vn -1.8916 0.6495 -0.0000
vn 1.9999 0.0175 -0.0000
vn -1.9999 0.0175 -0.0000
vn 1.8916 0.6495 -0.0000
vn 1.9308 -0.5214 -0.0000
vn -0.0000 2.0000 -0.0000
vn -1.9308 -0.5214 -0.0000
vn -1.2662 1.5481 -0.0000
vn 1.2662 1.5481 -0.0000
vn -0.0000 1.8449 -0.7723
vn -1.7191 0.9428 -0.3947
vn 1.7191 0.9428 -0.3947
vn -2.0000 -0.0000 0.0002
vt 0.919706 0.080294
vt 0.625000 0.500000
vt 0.990000 0.250000
vt 0.750000 0.500000
vt 0.875000 0.500000
vt 0.919706 0.419706
vt 0.750000 0.490000
vt 0.000000 0.500000
vt 1.000000 0.500000
vt 0.750000 0.010000
vt 0.500000 0.500000
vt 0.375000 0.500000
vt 0.580294 0.080294
vt 0.250000 0.500000
vt 0.510000 0.250000
vt 0.580294 0.419706
vt 0.125000 0.500000
vt 0.500000 1.000000
vt 0.250000 0.010000
vt 0.625000 1.000000
vt 0.419706 0.080294
vt 0.375000 1.000000
vt 0.080294 0.080294
vt 0.750000 1.000000
vt 0.490000 0.250000
vt 0.875000 1.000000
vt 0.419706 0.419706
vt 0.000000 1.000000
vt 1.000000 1.000000
vt 0.250000 0.490000
vt 0.010000 0.250000
vt 0.250000 1.000000
vt 0.080294 0.419706
vt 0.125000 1.000000
vt 0.368831 0.131169
vt 0.919706 0.080294
vt 0.625000 0.500000
vt 0.418052 0.250000
vt 0.990000 0.250000
vt 0.750000 0.500000
vt 0.368831 0.368831
vt 0.919706 0.419706
vt 0.875000 0.500000
vt 0.250000 0.418052
vt 1.000000 0.500000
vt 0.750000 0.490000
vt 0.000000 0.500000
vt 0.750000 0.010000
vt 0.500000 0.500000
vt 0.250000 0.081948
vt 0.375000 0.500000
vt 0.580294 0.080294
vt 0.131169 0.131169
vt 0.510000 0.250000
vt 0.250000 0.500000
vt 0.081948 0.250000
vt 0.125000 0.500000
vt 0.580294 0.419706
vt 0.131169 0.368831
vt 0.919706 0.080294
vt 0.990000 0.250000
vt 0.919706 0.419706
vt 0.750000 0.490000
vt 0.750000 0.010000
vt 0.580294 0.080294
vt 0.510000 0.250000
vt 0.580294 0.419706
vt 0.919706 0.080294
vt 0.990000 0.250000
vt 0.919706 0.419706
vt 0.750000 0.490000
vt 0.750000 0.010000
vt 0.580294 0.080294
vt 0.510000 0.250000
vt 0.580294 0.419706
vt 0.500000 1.000000
vt 0.250000 0.010000
vt 0.625000 1.000000
vt 0.419706 0.080294
vt 0.375000 1.000000
vt 0.080294 0.080294
vt 0.750000 1.000000
vt 0.490000 0.250000
vt 0.875000 1.000000
vt 0.419706 0.419706
vt 0.000000 1.000000
vt 1.000000 1.000000
vt 0.250000 0.490000
vt 0.250000 1.000000
vt 0.010000 0.250000
vt 0.125000 1.000000
vt 0.080294 0.419706
vt 0.374945 0.726591
vt 0.375000 0.750000
vt 0.375000 0.500000
vt 0.558720 0.750000
vt 0.551903 0.718990
vt 0.558720 0.500000
vt 0.663808 0.529311
vt 0.625000 0.788808
vt 0.663808 0.750000
vt 0.375000 0.719108
vt 0.375000 0.750000
vt 0.374945 0.726591
vt 0.375000 0.500000
vt 0.558720 0.750000
vt 0.551903 0.718990
vt 0.558720 0.500000
vt 0.663808 0.529311
vt 0.625000 0.788808
vt 0.663808 0.750000
vt 0.875000 0.500000
vt 0.875000 1.000000
vt 0.750000 0.500000
vt 0.750000 1.000000
vt 0.250000 0.500000
vt 0.250000 1.000000
vt 0.125000 0.500000
vt 0.125000 1.000000
vt 1.000000 0.500000
vt 0.043766 0.500000
vt 0.956234 0.500000
vt 0.956234 1.000000
vt 0.043766 1.000000
vt 1.000000 1.000000
vt 0.875000 0.500000
vt 0.875000 1.000000
vt 0.750000 0.500000
vt 0.750000 1.000000
vt 0.250000 0.500000
vt 0.250000 1.000000
vt 0.125000 0.500000
vt 0.125000 1.000000
vt 1.000000 0.500000
vt 0.043766 0.500000
vt 0.956234 0.500000
vt 0.956234 1.000000
vt 0.043766 1.000000
vt 1.000000 1.000000
vt 0.000000 0.000000
vt 0.000000 0.000000
vt 0.000000 0.000000
vt 0.000000 0.000000
vt 0.000000 0.000000
vt 0.000000 0.000000
vt 0.000000 0.000000
vt 0.000000 0.000000
vt 0.663808 0.635792
vt 0.556326 0.713831
vt 0.663808 0.635792
vt 0.556326 0.713832
vt 0.663808 0.669837
vt 0.663808 0.669837
vt 0.625000 0.461192
vt 0.663808 0.500000
vt 0.625000 0.461192
vt 0.663808 0.500000
vt 0.663808 0.665104
vt 0.663808 0.665104
vt 0.000000 0.000000
vt 0.000000 0.000000
vt 0.000000 0.000000
vt 0.000000 0.000000
vt 0.000000 0.000000
vt 0.000000 0.000000
vt 0.000000 0.000000
vt 0.000000 0.000000
vt 0.000000 0.000000
vt 0.000000 0.000000
vt 0.000000 0.000000
vt 0.000000 0.000000
vt 0.000000 0.000000
vt 0.000000 0.000000
vt 0.000000 0.000000
vt 0.000000 0.000000
vt 0.000000 0.000000
vt 0.000000 0.000000
s 0
usemtl M_PCL_Flat_Black
f 6/12/1 15/32/1 7/14/1
f 1/1/2 6/13/2 8/16/2
f 10/20/3 5/11/3 1/2/3
f 5/11/4 11/22/4 6/12/4
f 16/34/5 4/8/5 8/17/5
f 12/24/6 1/2/6 2/4/6
f 13/26/7 2/4/7 3/5/7
f 4/9/8 13/26/8 3/5/8
f 12/25/9 14/30/9 15/31/9
f 15/32/10 8/17/10 7/14/10
f 19/38/2 23/44/2 30/56/2
f 55/89/7 31/57/7 29/55/7
f 18/36/9 27/52/9 31/58/9
f 56/91/8 24/47/8 31/57/8
f 54/87/5 22/43/5 24/45/5
f 51/80/6 29/55/6 27/51/6
f 25/49/3 51/80/3 27/51/3
f 50/78/4 25/49/4 18/37/4
f 52/82/1 18/37/1 20/40/1
f 53/84/10 20/40/10 22/43/10
f 40/67/7 47/74/7 39/66/7
f 33/60/1 42/69/1 34/61/1
f 38/65/3 45/72/3 37/64/3
f 33/60/4 45/72/4 41/68/4
f 36/63/8 48/75/8 40/67/8
f 35/62/5 44/71/5 36/63/5
f 34/61/10 43/70/10 35/62/10
f 39/66/6 46/73/6 38/65/6
f 26/50/11 50/79/11 17/35/11
f 28/53/12 49/77/12 26/50/12
f 19/38/13 50/79/13 52/83/13
f 19/38/14 53/85/14 21/41/14
f 21/41/15 54/88/15 23/44/15
f 30/56/16 51/81/16 28/53/16
f 30/56/17 56/92/17 55/90/17
f 32/59/18 54/88/18 56/92/18
f 47/74/9 44/71/9 42/69/9
usemtl M_PCL_Flat_Black_Lighter
f 107/154/19 108/156/19 58/95/19
f 62/100/20 68/110/20 63/103/20
f 105/152/21 62/101/21 59/97/21
f 63/104/22 58/95/22 57/93/22
f 106/153/23 65/106/23 68/111/23
f 76/119/24 77/121/24 75/118/24
f 69/112/25 72/115/25 71/114/25
f 74/117/26 75/118/26 73/116/26
f 79/123/27 69/112/27 78/122/27
f 89/135/28 88/133/28 87/132/28
f 81/126/2 84/129/2 82/127/2
f 87/132/9 86/131/9 85/130/9
f 77/120/29 79/123/29 78/122/29
f 90/136/30 82/127/30 91/137/30
f 71/114/19 81/126/19 69/112/19
f 72/115/20 82/127/20 84/129/20
f 73/116/19 87/132/19 85/130/19
f 74/117/20 88/133/20 76/119/20
f 90/136/22 92/139/22 89/134/22
f 78/122/19 89/134/19 77/120/19
f 69/112/19 90/136/19 78/122/19
f 70/113/20 91/137/20 82/127/20
f 75/118/19 89/135/19 87/132/19
f 76/119/20 92/138/20 80/124/20
usemtl M_PCL_Flat_Glass
f 96/143/20 94/141/20 93/140/20
f 98/145/19 100/147/19 97/144/19
usemtl M_PCL_Flat_Black_Lighter
f 106/153/29 62/101/29 105/152/29
usemtl M_PCL_Flat_Red.Brick
f 67/109/29 101/148/29 61/99/29
usemtl M_PCL_Flat_Black_Lighter
f 66/108/31 110/159/31 107/155/31
f 64/105/2 104/151/2 66/108/2
f 109/158/32 60/98/32 108/157/32
f 58/95/9 102/149/9 57/93/9
f 110/159/33 105/152/33 109/158/33
f 104/151/34 106/153/34 110/159/34
f 63/102/2 65/107/2 104/151/2
f 105/152/35 102/149/35 109/158/35
f 57/93/9 102/149/9 59/97/9
f 61/99/29 107/155/29 67/109/29
f 61/99/29 109/158/29 108/157/29
f 67/109/29 110/159/29 103/150/29
f 103/150/29 109/158/29 101/148/29
f 79/123/20 92/139/20 91/137/20
usemtl M_PCL_Flat_Red.Brick
f 111/160/20 114/163/20 118/167/20
f 127/176/20 123/172/20 120/169/20
f 117/166/20 126/175/20 124/173/20
usemtl M_PCL_Flat_Black
f 6/12/1 11/22/1 15/32/1
f 8/16/2 4/7/2 1/1/2
f 4/7/2 3/6/2 1/1/2
f 3/6/2 2/3/2 1/1/2
f 1/1/36 5/10/36 6/13/36
f 6/13/2 7/15/2 8/16/2
f 10/20/3 9/18/3 5/11/3
f 5/11/4 9/18/4 11/22/4
f 16/34/5 14/28/5 4/8/5
f 12/24/6 10/20/6 1/2/6
f 13/26/7 12/24/7 2/4/7
f 4/9/8 14/29/8 13/26/8
f 12/25/9 13/27/9 14/30/9
f 14/30/9 16/33/9 15/31/9
f 15/31/9 11/23/9 9/19/9
f 9/19/9 10/21/9 15/31/9
f 10/21/9 12/25/9 15/31/9
f 15/32/10 16/34/10 8/17/10
f 19/38/2 21/41/2 23/44/2
f 23/44/2 32/59/2 30/56/2
f 30/56/2 28/53/2 19/38/2
f 28/53/2 26/50/2 19/38/2
f 26/50/2 17/35/2 19/38/2
f 55/89/7 56/91/7 31/57/7
f 31/58/9 24/46/9 18/36/9
f 24/46/9 22/42/9 18/36/9
f 22/42/9 20/39/9 18/36/9
f 18/36/9 25/48/9 27/52/9
f 27/52/9 29/54/9 31/58/9
f 56/91/8 54/86/8 24/47/8
f 54/87/5 53/84/5 22/43/5
f 51/80/6 55/89/6 29/55/6
f 25/49/3 49/76/3 51/80/3
f 50/78/4 49/76/4 25/49/4
f 52/82/1 50/78/1 18/37/1
f 53/84/10 52/82/10 20/40/10
f 40/67/7 48/75/7 47/74/7
f 33/60/1 41/68/1 42/69/1
f 38/65/3 46/73/3 45/72/3
f 33/60/4 37/64/4 45/72/4
f 36/63/8 44/71/8 48/75/8
f 35/62/5 43/70/5 44/71/5
f 34/61/10 42/69/10 43/70/10
f 39/66/6 47/74/6 46/73/6
f 26/50/11 49/77/11 50/79/11
f 28/53/12 51/81/12 49/77/12
f 19/38/13 17/35/13 50/79/13
f 19/38/14 52/83/14 53/85/14
f 21/41/15 53/85/15 54/88/15
f 30/56/16 55/90/16 51/81/16
f 30/56/17 32/59/17 56/92/17
f 32/59/18 23/44/18 54/88/18
f 42/69/9 41/68/9 47/74/9
f 41/68/9 45/72/9 47/74/9
f 45/72/9 46/73/9 47/74/9
f 47/74/9 48/75/9 44/71/9
f 44/71/9 43/70/9 42/69/9
usemtl M_PCL_Flat_Black_Lighter
f 60/98/19 58/95/19 108/156/19
f 58/95/19 64/105/19 107/154/19
f 64/105/19 66/108/19 107/154/19
f 65/106/20 63/103/20 68/110/20
f 63/103/20 57/94/20 62/100/20
f 57/94/20 59/96/20 62/100/20
f 63/104/22 64/105/22 58/95/22
f 76/119/24 80/124/24 77/121/24
f 69/112/25 70/113/25 72/115/25
f 74/117/26 76/119/26 75/118/26
f 79/123/27 70/113/27 69/112/27
f 89/135/28 92/138/28 88/133/28
f 81/126/2 83/128/2 84/129/2
f 87/132/9 88/133/9 86/131/9
f 77/120/29 80/125/29 79/123/29
f 90/136/30 81/126/30 82/127/30
f 71/114/19 83/128/19 81/126/19
f 72/115/20 70/113/20 82/127/20
f 73/116/19 75/118/19 87/132/19
f 74/117/20 86/131/20 88/133/20
f 90/136/22 91/137/22 92/139/22
f 78/122/19 90/136/19 89/134/19
f 69/112/19 81/126/19 90/136/19
f 70/113/20 79/123/20 91/137/20
f 75/118/19 77/121/19 89/135/19
f 76/119/20 88/133/20 92/138/20
usemtl M_PCL_Flat_Glass
f 96/143/20 95/142/20 94/141/20
f 98/145/19 99/146/19 100/147/19
usemtl M_PCL_Flat_Black_Lighter
f 106/153/29 68/111/29 62/101/29
usemtl M_PCL_Flat_Red.Brick
f 67/109/29 103/150/29 101/148/29
usemtl M_PCL_Flat_Black_Lighter
f 66/108/31 104/151/31 110/159/31
f 64/105/2 63/104/2 104/151/2
f 109/158/32 102/149/32 60/98/32
f 58/95/9 60/98/9 102/149/9
f 110/159/33 106/153/33 105/152/33
f 104/151/23 65/107/23 106/153/23
f 105/152/21 59/97/21 102/149/21
f 61/99/29 108/157/29 107/155/29
f 61/99/29 101/148/29 109/158/29
f 67/109/29 107/155/29 110/159/29
f 103/150/29 110/159/29 109/158/29
f 79/123/20 80/125/20 92/139/20
usemtl M_PCL_Flat_Red.Brick
f 119/168/20 112/161/20 111/160/20
f 114/163/20 113/162/20 118/167/20
f 118/167/20 119/168/20 111/160/20
f 120/169/20 121/170/20 128/177/20
f 127/176/20 122/171/20 123/172/20
f 120/169/20 128/177/20 127/176/20
f 125/174/20 124/173/20 126/175/20
f 124/173/20 115/164/20 117/166/20
f 115/164/20 116/165/20 117/166/20
