# Blender 3.1.0
# www.blender.org
mtllib Suppressor_East.mtl
o Suppressor_East
v -0.000000 -0.020787 -0.113803
v 0.014698 -0.014698 -0.113803
v 0.020787 0.000000 -0.113803
v 0.014698 0.014698 -0.113803
v -0.000000 0.020787 -0.113803
v -0.014698 0.014698 -0.113803
v -0.020787 0.000000 -0.113803
v -0.014698 -0.014698 -0.113803
v -0.000000 -0.016147 -0.119947
v 0.011418 -0.011418 -0.119947
v 0.016147 0.000000 -0.119947
v 0.011418 0.011418 -0.119947
v -0.000000 0.016147 -0.119947
v -0.011418 0.011418 -0.119947
v -0.016147 0.000000 -0.119947
v -0.011418 -0.011418 -0.119947
v -0.000000 -0.016147 -0.143486
v 0.011418 -0.011418 -0.143486
v 0.016147 0.000000 -0.143486
v 0.011418 0.011418 -0.143486
v -0.000000 0.016147 -0.143486
v -0.011418 0.011418 -0.143486
v -0.016147 0.000000 -0.143486
v -0.011418 -0.011418 -0.143486
v -0.000000 -0.007730 -0.148670
v 0.005466 -0.005466 -0.148670
v 0.007730 0.000000 -0.148670
v 0.005466 0.005466 -0.148670
v -0.000000 0.007730 -0.148670
v -0.005466 0.005466 -0.148670
v -0.007730 0.000000 -0.148670
v -0.005466 -0.005466 -0.148670
v -0.000000 -0.009915 0.003367
v -0.000000 -0.014436 -0.005507
v 0.007011 -0.007011 0.003367
v 0.010208 -0.010208 -0.005507
v 0.009915 0.000000 0.003367
v 0.014436 0.000000 -0.005507
v 0.007011 0.007011 0.003367
v 0.010208 0.010208 -0.005507
v -0.000000 0.009915 0.003367
v -0.000000 0.014436 -0.005507
v -0.007011 0.007011 0.003367
v -0.010208 0.010208 -0.005507
v -0.009915 0.000000 0.003367
v -0.014436 0.000000 -0.005507
v -0.007011 -0.007011 0.003367
v -0.010208 -0.010208 -0.005507
v -0.000000 -0.017163 -0.005507
v -0.000000 -0.020787 -0.010364
v 0.012136 -0.012136 -0.005507
v 0.014698 -0.014698 -0.010364
v 0.017163 0.000000 -0.005507
v 0.020787 0.000000 -0.010364
v 0.012136 0.012136 -0.005507
v 0.014698 0.014698 -0.010364
v -0.000000 0.017163 -0.005507
v -0.000000 0.020787 -0.010364
v -0.012136 0.012136 -0.005507
v -0.014698 0.014698 -0.010364
v -0.017163 0.000000 -0.005507
v -0.020787 0.000000 -0.010364
v -0.012136 -0.012136 -0.005507
v -0.014698 -0.014698 -0.010364
v -0.000000 -0.014436 0.003367
v 0.010208 -0.010208 0.003367
v 0.014436 0.000000 0.003367
v 0.010208 0.010208 0.003367
v -0.000000 0.014436 0.003367
v -0.010208 0.010208 0.003367
v -0.014436 0.000000 0.003367
v -0.010208 -0.010208 0.003367
v -0.000000 0.000000 -0.004542
v 0.010126 -0.010126 -0.148670
v -0.000000 -0.014320 -0.148670
v 0.014320 0.000000 -0.148670
v 0.010126 0.010126 -0.148670
v -0.000000 0.014320 -0.148670
v -0.010126 0.010126 -0.148670
v -0.014320 0.000000 -0.148670
v -0.010126 -0.010126 -0.148670
v -0.000000 0.000000 -0.140054
vn -0.3827 -0.9239 -0.0000
vn 0.9239 0.3827 -0.0000
vn 0.3827 0.9239 -0.0000
vn -0.3827 0.9239 -0.0000
vn -0.9239 0.3827 -0.0000
vn -0.9239 -0.3827 -0.0000
vn -0.3139 -0.7577 -0.5722
vn 0.9239 -0.3827 -0.0000
vn 0.3827 -0.9239 -0.0000
vn 0.3139 -0.7577 -0.5722
vn 0.7577 0.3139 -0.5722
vn -0.7577 0.3139 -0.5722
vn 0.3139 0.7577 -0.5722
vn -0.7577 -0.3139 -0.5722
vn 0.7577 -0.3139 -0.5722
vn -0.3139 0.7577 -0.5722
vn -0.8785 0.3639 -0.3097
vn -0.2946 0.7113 -0.6381
vn 0.3639 0.8785 -0.3097
vn 0.8785 -0.3639 -0.3097
vn -0.8785 -0.3639 -0.3097
vn -0.3639 0.8785 -0.3097
vn 0.8785 0.3639 -0.3097
vn 0.3639 -0.8785 -0.3097
vn -0.3639 -0.8785 -0.3097
vn -0.2501 0.6038 0.7569
vn 0.3151 -0.7607 0.5676
vn 0.7607 -0.3151 0.5676
vn 0.7607 0.3151 0.5676
vn 0.3151 0.7607 0.5676
vn -0.3151 0.7607 0.5676
vn -0.7607 0.3151 0.5676
vn -0.7607 -0.3151 0.5676
vn -0.3151 -0.7607 0.5676
vn -0.0000 -0.0000 1.0000
vn 0.2501 0.6038 0.7569
vn 0.6038 -0.2501 0.7569
vn -0.2501 -0.6038 0.7569
vn -0.6038 0.2501 0.7569
vn 0.6038 0.2501 0.7569
vn 0.2501 -0.6038 0.7569
vn -0.6038 -0.2501 0.7569
vn -0.0000 -0.0000 -1.0000
vn 0.2946 0.7113 -0.6381
vn 0.7113 -0.2946 -0.6381
vn -0.2946 -0.7113 -0.6381
vn -0.7113 0.2946 -0.6381
vn 0.7113 0.2946 -0.6381
vn 0.2946 -0.7113 -0.6381
vn -0.7113 -0.2946 -0.6381
vt 0.000000 1.000000
vt 1.000000 1.000000
vt 0.875000 1.000000
vt 0.750000 1.000000
vt 0.625000 1.000000
vt 0.500000 1.000000
vt 0.375000 1.000000
vt 0.250000 1.000000
vt 0.125000 1.000000
vt 0.000000 1.000000
vt 1.000000 1.000000
vt 0.875000 1.000000
vt 0.750000 1.000000
vt 0.625000 1.000000
vt 0.500000 1.000000
vt 0.375000 1.000000
vt 0.250000 1.000000
vt 0.125000 1.000000
vt 1.000000 1.000000
vt 0.000000 1.000000
vt 0.875000 1.000000
vt 0.750000 1.000000
vt 0.625000 1.000000
vt 0.500000 1.000000
vt 0.375000 1.000000
vt 0.250000 1.000000
vt 0.125000 1.000000
vt 0.250000 0.429862
vt 0.377182 0.377182
vt 0.429862 0.250000
vt 0.377182 0.122818
vt 0.250000 0.070138
vt 0.122818 0.122818
vt 0.070138 0.250000
vt 0.122818 0.377182
vt 0.750000 0.410982
vt 1.000000 1.000000
vt 0.000000 1.000000
vt 0.863831 0.363831
vt 0.875000 1.000000
vt 0.910982 0.250000
vt 0.750000 1.000000
vt 0.863832 0.136169
vt 0.625000 1.000000
vt 0.750000 0.089018
vt 0.500000 1.000000
vt 0.636169 0.136169
vt 0.375000 1.000000
vt 0.589018 0.250000
vt 0.250000 1.000000
vt 0.636169 0.363831
vt 0.125000 1.000000
vt 0.989104 0.500000
vt 0.010896 0.500000
vt 0.750000 0.448159
vt 1.000000 0.551487
vt 0.000000 0.551487
vt 0.864104 0.500000
vt 0.885896 0.500000
vt 0.890120 0.390120
vt 0.875000 0.551487
vt 0.760896 0.500000
vt 0.739104 0.500000
vt 0.948160 0.250000
vt 0.750000 0.551487
vt 0.614104 0.500000
vt 0.635896 0.500000
vt 0.890120 0.109880
vt 0.625000 0.551487
vt 0.510896 0.500000
vt 0.489104 0.500000
vt 0.750000 0.051841
vt 0.500000 0.551487
vt 0.385896 0.500000
vt 0.364104 0.500000
vt 0.609880 0.109880
vt 0.375000 0.551487
vt 0.239104 0.500000
vt 0.260896 0.500000
vt 0.551841 0.250000
vt 0.250000 0.551487
vt 0.135896 0.500000
vt 0.114104 0.500000
vt 0.609880 0.390120
vt 0.125000 0.551487
vt 1.000000 0.500000
vt 0.000000 0.500000
vt 0.750000 0.490000
vt 0.875000 0.500000
vt 0.919706 0.419706
vt 0.750000 0.500000
vt 0.990000 0.250000
vt 0.625000 0.500000
vt 0.919706 0.080294
vt 0.500000 0.500000
vt 0.750000 0.010000
vt 0.375000 0.500000
vt 0.580294 0.080294
vt 0.250000 0.500000
vt 0.510000 0.250000
vt 0.125000 0.500000
vt 0.580294 0.419706
vt 0.750000 0.410982
vt 0.636169 0.363831
vt 0.636169 0.136169
vt 0.863832 0.136169
vt 0.863831 0.363831
vt 0.589018 0.250000
vt 0.750000 0.089018
vt 0.910982 0.250000
vt 0.875000 1.000000
vt 0.419706 0.419706
vt 0.000000 1.000000
vt 1.000000 1.000000
vt 0.250000 0.490000
vt 0.750000 1.000000
vt 0.490000 0.250000
vt 0.625000 1.000000
vt 0.419706 0.080294
vt 0.500000 1.000000
vt 0.250000 0.010000
vt 0.375000 1.000000
vt 0.080294 0.080294
vt 0.250000 1.000000
vt 0.010000 0.250000
vt 0.125000 1.000000
vt 0.080294 0.419706
vt 0.377182 0.377182
vt 0.250000 0.429862
vt 0.070138 0.250000
vt 0.250000 0.070138
vt 0.429862 0.250000
vt 0.122818 0.377182
vt 0.122818 0.122818
vt 0.377182 0.122818
s 0
usemtl M_PCL_Flat_Black_Lighter
f 8/9/1 50/57/1 64/85/1
f 3/4/2 56/69/2 54/65/2
f 4/5/3 58/73/3 56/69/3
f 5/6/4 60/77/4 58/73/4
f 6/7/5 62/81/5 60/77/5
f 7/8/6 64/85/6 62/81/6
f 1/1/7 16/18/7 9/10/7
f 2/3/8 54/65/8 52/61/8
f 1/2/9 52/61/9 50/56/9
f 15/17/6 24/27/6 16/18/6
f 1/2/10 10/12/10 2/3/10
f 4/5/11 11/13/11 12/14/11
f 7/8/12 14/16/12 15/17/12
f 4/5/13 13/15/13 5/6/13
f 7/8/14 16/18/14 8/9/14
f 2/3/15 11/13/15 3/4/15
f 6/7/16 13/15/16 14/16/16
f 23/26/17 79/122/17 80/124/17
f 13/15/4 22/25/4 14/16/4
f 11/13/2 20/23/2 12/14/2
f 9/11/9 18/21/9 10/12/9
f 16/18/1 17/20/1 9/10/1
f 14/16/5 23/26/5 15/17/5
f 12/14/3 21/24/3 13/15/3
f 10/12/8 19/22/8 11/13/8
usemtl M_PCL_Flat_Black
f 26/29/18 25/28/18 82/128/18
usemtl M_PCL_Flat_Black_Lighter
f 20/23/19 78/120/19 21/24/19
f 18/21/20 76/116/20 19/22/20
f 23/26/21 81/126/21 24/27/21
f 22/25/22 78/120/22 79/122/22
f 20/23/23 76/116/23 77/118/23
f 17/19/24 74/111/24 18/21/24
f 17/20/25 81/126/25 75/113/25
usemtl M_PCL_Flat_Grey_Dark
f 34/37/9 66/89/9 65/86/9
f 66/89/8 38/42/8 67/91/8
f 67/91/2 40/44/2 68/93/2
f 68/93/3 42/46/3 69/95/3
f 42/46/4 70/97/4 69/95/4
f 44/48/5 71/99/5 70/97/5
f 46/50/6 72/101/6 71/99/6
f 48/52/1 65/87/1 72/101/1
usemtl M_PCL_Flat_Black
f 33/36/26 35/39/26 73/103/26
usemtl M_PCL_Flat_Black_Lighter
f 50/56/27 51/59/27 49/53/27
f 52/61/28 53/62/28 51/58/28
f 56/69/29 53/63/29 54/65/29
f 56/69/30 57/70/30 55/66/30
f 60/77/31 57/71/31 58/73/31
f 62/81/32 59/75/32 60/77/32
f 62/81/33 63/82/33 61/78/33
f 50/57/34 63/83/34 64/85/34
f 61/80/35 63/84/35 55/68/35
usemtl M_PCL_Flat_Grey_Dark
f 35/39/35 65/88/35 66/90/35
f 37/41/35 66/90/35 67/92/35
f 37/41/35 68/94/35 39/43/35
f 41/45/35 68/94/35 69/96/35
f 43/47/35 69/96/35 70/98/35
f 43/47/35 71/100/35 45/49/35
f 47/51/35 71/100/35 72/102/35
f 47/51/35 65/88/35 33/36/35
usemtl M_PCL_Flat_Black
f 47/51/36 33/36/36 73/104/36
f 43/47/37 45/49/37 73/105/37
f 39/43/38 41/45/38 73/106/38
f 35/39/39 37/41/39 73/107/39
f 45/49/40 47/51/40 73/108/40
f 41/45/41 43/47/41 73/109/41
f 37/41/42 39/43/42 73/110/42
usemtl M_PCL_Flat_Black_Lighter
f 26/29/43 75/115/43 25/28/43
f 27/30/43 74/112/43 26/29/43
f 27/30/43 77/119/43 76/117/43
f 29/32/43 77/119/43 28/31/43
f 29/32/43 79/123/43 78/121/43
f 30/33/43 80/125/43 79/123/43
f 32/35/43 80/125/43 31/34/43
f 32/35/43 75/115/43 81/127/43
usemtl M_PCL_Flat_Black
f 25/28/44 32/35/44 82/129/44
f 31/34/45 30/33/45 82/130/45
f 29/32/46 28/31/46 82/131/46
f 27/30/47 26/29/47 82/132/47
f 32/35/48 31/34/48 82/133/48
f 30/33/49 29/32/49 82/134/49
f 28/31/50 27/30/50 82/135/50
usemtl M_PCL_Flat_Black_Lighter
f 8/9/1 1/1/1 50/57/1
f 3/4/2 4/5/2 56/69/2
f 4/5/3 5/6/3 58/73/3
f 5/6/4 6/7/4 60/77/4
f 6/7/5 7/8/5 62/81/5
f 7/8/6 8/9/6 64/85/6
f 1/1/7 8/9/7 16/18/7
f 2/3/8 3/4/8 54/65/8
f 1/2/9 2/3/9 52/61/9
f 15/17/6 23/26/6 24/27/6
f 1/2/10 9/11/10 10/12/10
f 4/5/11 3/4/11 11/13/11
f 7/8/12 6/7/12 14/16/12
f 4/5/13 12/14/13 13/15/13
f 7/8/14 15/17/14 16/18/14
f 2/3/15 10/12/15 11/13/15
f 6/7/16 5/6/16 13/15/16
f 23/26/17 22/25/17 79/122/17
f 13/15/4 21/24/4 22/25/4
f 11/13/2 19/22/2 20/23/2
f 9/11/9 17/19/9 18/21/9
f 16/18/1 24/27/1 17/20/1
f 14/16/5 22/25/5 23/26/5
f 12/14/3 20/23/3 21/24/3
f 10/12/8 18/21/8 19/22/8
f 20/23/19 77/118/19 78/120/19
f 18/21/20 74/111/20 76/116/20
f 23/26/21 80/124/21 81/126/21
f 22/25/22 21/24/22 78/120/22
f 20/23/23 19/22/23 76/116/23
f 17/19/24 75/114/24 74/111/24
f 17/20/25 24/27/25 81/126/25
usemtl M_PCL_Flat_Grey_Dark
f 34/37/9 36/40/9 66/89/9
f 66/89/8 36/40/8 38/42/8
f 67/91/2 38/42/2 40/44/2
f 68/93/3 40/44/3 42/46/3
f 42/46/4 44/48/4 70/97/4
f 44/48/5 46/50/5 71/99/5
f 46/50/6 48/52/6 72/101/6
f 48/52/1 34/38/1 65/87/1
usemtl M_PCL_Flat_Black_Lighter
f 50/56/27 52/61/27 51/59/27
f 52/61/28 54/65/28 53/62/28
f 56/69/29 55/67/29 53/63/29
f 56/69/30 58/73/30 57/70/30
f 60/77/31 59/74/31 57/71/31
f 62/81/32 61/79/32 59/75/32
f 62/81/33 64/85/33 63/82/33
f 50/57/34 49/54/34 63/83/34
f 63/84/35 49/55/35 55/68/35
f 49/55/35 51/60/35 55/68/35
f 51/60/35 53/64/35 55/68/35
f 55/68/35 57/72/35 59/76/35
f 59/76/35 61/80/35 55/68/35
usemtl M_PCL_Flat_Grey_Dark
f 35/39/35 33/36/35 65/88/35
f 37/41/35 35/39/35 66/90/35
f 37/41/35 67/92/35 68/94/35
f 41/45/35 39/43/35 68/94/35
f 43/47/35 41/45/35 69/96/35
f 43/47/35 70/98/35 71/100/35
f 47/51/35 45/49/35 71/100/35
f 47/51/35 72/102/35 65/88/35
usemtl M_PCL_Flat_Black_Lighter
f 26/29/43 74/112/43 75/115/43
f 27/30/43 76/117/43 74/112/43
f 27/30/43 28/31/43 77/119/43
f 29/32/43 78/121/43 77/119/43
f 29/32/43 30/33/43 79/123/43
f 30/33/43 31/34/43 80/125/43
f 32/35/43 81/127/43 80/125/43
f 32/35/43 25/28/43 75/115/43
