# Blender 3.1.0
# www.blender.org
mtllib Suppressor_West.mtl
o Suppressor_West
v -0.000000 0.017807 -0.014464
v 0.012591 0.012591 -0.014464
v -0.010972 0.010972 0.003585
v -0.015517 -0.000000 0.003585
v -0.000000 -0.017807 -0.014464
v -0.012591 -0.012591 -0.014464
v -0.010972 -0.010972 0.003585
v -0.000000 -0.015517 0.003585
v -0.000000 0.008601 -0.139832
v 0.006082 0.006082 -0.139832
v 0.008601 -0.000000 -0.139832
v 0.006082 -0.006082 -0.139832
v -0.000000 -0.008601 -0.139832
v -0.006082 -0.006082 -0.139832
v -0.008601 -0.000000 -0.139832
v -0.006082 0.006082 -0.139832
v -0.000000 0.017807 -0.004191
v 0.012591 0.012591 -0.004191
v 0.017807 -0.000000 -0.004191
v 0.012591 -0.012591 -0.004191
v -0.000000 -0.017807 -0.004191
v -0.012591 -0.012591 -0.004191
v -0.017807 -0.000000 -0.004191
v -0.012591 0.012591 -0.004191
v 0.010972 -0.010972 0.003585
v 0.015517 -0.000000 0.003585
v 0.017807 -0.000000 -0.014464
v 0.012591 -0.012591 -0.014464
v 0.010972 0.010972 0.003585
v -0.000000 0.015517 0.003585
v -0.017807 -0.000000 -0.014464
v -0.012591 0.012591 -0.014464
v -0.000000 0.015517 -0.017460
v -0.010972 -0.010972 -0.017460
v -0.000000 -0.015517 -0.017460
v 0.010972 0.010972 -0.017460
v 0.015517 -0.000000 -0.017460
v 0.010972 -0.010972 -0.017460
v -0.015517 -0.000000 -0.017460
v -0.010972 0.010972 -0.017460
v -0.000000 0.015517 -0.001195
v -0.010972 -0.010972 -0.001195
v -0.010972 0.010972 -0.001195
v -0.015517 -0.000000 -0.001195
v 0.015517 -0.000000 -0.001195
v 0.010972 0.010972 -0.001195
v -0.000000 -0.015517 -0.001195
v 0.010972 -0.010972 -0.001195
v 0.007328 -0.007312 -0.005035
v 0.000016 -0.010341 -0.005035
v 0.007328 0.007312 -0.005035
v 0.010357 -0.000000 -0.005035
v -0.010325 -0.000000 -0.005035
v -0.007296 0.007312 -0.005035
v -0.007296 -0.007312 -0.005035
v 0.000016 0.010341 -0.005035
v -0.000000 0.015517 -0.139832
v 0.010972 0.010972 -0.139832
v 0.015517 -0.000000 -0.139832
v 0.010972 -0.010972 -0.139832
v -0.000000 -0.015517 -0.139832
v -0.010972 -0.010972 -0.139832
v -0.015517 -0.000000 -0.139832
v -0.010972 0.010972 -0.139832
v -0.000000 -0.000000 -0.124097
v 0.000016 0.007554 0.000730
v 0.005358 0.005342 0.000730
v 0.007571 -0.000000 0.000730
v 0.005358 -0.005342 0.000730
v 0.000016 -0.007554 0.000730
v -0.005326 -0.005342 0.000730
v -0.007538 -0.000000 0.000730
v -0.005326 0.005342 0.000730
v 0.000016 -0.010341 0.000730
v -0.007296 -0.007312 0.000730
v -0.010325 -0.000000 0.000730
v -0.007296 0.007312 0.000730
v 0.000016 0.010341 0.000730
v 0.007328 0.007312 0.000730
v 0.010357 -0.000000 0.000730
v 0.007328 -0.007312 0.000730
v -0.000897 -0.000000 -0.004575
v 0.009214 -0.009197 -0.005035
v 0.000016 -0.013007 -0.005035
v 0.009214 0.009197 -0.005035
v 0.013023 -0.000000 -0.005035
v -0.012991 -0.000000 -0.005035
v -0.009181 0.009197 -0.005035
v -0.009181 -0.009197 -0.005035
v 0.000016 0.013007 -0.005035
v 0.009214 -0.009197 0.003585
v 0.000016 -0.013007 0.003585
v 0.009214 0.009197 0.003585
v 0.013023 -0.000000 0.003585
v -0.012991 -0.000000 0.003585
v -0.009181 0.009197 0.003585
v -0.009181 -0.009197 0.003585
v 0.000016 0.013007 0.003585
vn 0.3126 0.7548 -0.5767
vn 0.7548 0.3126 -0.5767
vn 0.7548 -0.3126 -0.5767
vn 0.3126 -0.7548 -0.5767
vn -0.3126 -0.7548 -0.5767
vn -0.7548 -0.3126 -0.5767
vn -0.0000 -0.0000 1.0000
vn -0.7548 0.3126 -0.5767
vn -0.3126 0.7548 -0.5767
vn -0.3827 -0.9239 -0.0000
vn 0.8247 0.3416 -0.4508
vn -0.3827 0.9239 -0.0000
vn 0.9239 -0.3827 -0.0000
vn -0.9239 -0.3827 -0.0000
vn 0.9239 0.3827 -0.0000
vn 0.3827 -0.9239 -0.0000
vn -0.9239 0.3827 -0.0000
vn 0.3827 0.9239 -0.0000
vn -0.7548 -0.3126 0.5767
vn -0.3126 0.7548 0.5767
vn 0.3126 0.7548 0.5767
vn 0.7548 -0.3126 0.5767
vn -0.3126 -0.7548 0.5767
vn -0.7548 0.3126 0.5767
vn 0.7548 0.3126 0.5767
vn 0.3126 -0.7548 0.5767
vn -0.0000 -0.0000 -1.0000
vn -0.3416 0.8247 -0.4508
vn -0.8247 -0.3416 -0.4508
vn 0.8247 -0.3416 -0.4508
vn 0.3416 0.8247 -0.4508
vn -0.8247 0.3416 -0.4508
vn -0.3416 -0.8247 -0.4508
vn 0.3416 -0.8247 -0.4508
vn 0.6043 0.2503 0.7565
vn -0.5185 0.2148 0.8276
vn -0.2244 -0.5417 0.8100
vn 0.6043 -0.2503 0.7565
vn 0.2391 0.5772 0.7808
vn -0.2244 0.5417 0.8100
vn -0.5185 -0.2148 0.8276
vn 0.2391 -0.5772 0.7808
vt 1.000000 1.000000
vt 0.000000 1.000000
vt 0.000000 0.500000
vt 1.000000 0.500000
vt 0.875000 1.000000
vt 0.875000 0.500000
vt 0.125000 0.500000
vt 0.000000 0.000000
vt 0.250000 0.500000
vt 0.000000 0.000000
vt 0.500000 1.000000
vt 0.500000 0.500000
vt 0.375000 1.000000
vt 0.375000 0.500000
vt 0.375000 0.500000
vt 0.000000 0.000000
vt 0.500000 0.500000
vt 0.000000 0.000000
vt 0.750000 0.355324
vt 0.824475 0.324475
vt 0.855324 0.250000
vt 0.824475 0.175525
vt 0.750000 0.144676
vt 0.675525 0.175525
vt 0.644676 0.250000
vt 0.675525 0.324475
vt 0.000000 0.500000
vt 1.000000 0.500000
vt 0.875000 0.500000
vt 0.750000 0.500000
vt 0.625000 0.500000
vt 0.500000 0.500000
vt 0.375000 0.500000
vt 0.250000 0.500000
vt 0.125000 0.500000
vt 0.625000 0.500000
vt 0.000000 0.000000
vt 0.750000 0.500000
vt 0.000000 0.000000
vt 0.750000 1.000000
vt 0.750000 0.500000
vt 0.625000 1.000000
vt 0.625000 0.500000
vt 0.875000 0.500000
vt 0.000000 0.000000
vt 1.000000 0.500000
vt 0.000000 0.500000
vt 0.000000 0.000000
vt 0.250000 1.000000
vt 0.250000 0.500000
vt 0.125000 1.000000
vt 0.125000 0.500000
vt 0.000000 0.984776
vt 1.000000 0.984776
vt 0.375000 0.984776
vt 0.500000 0.984776
vt 0.875000 0.984776
vt 0.750000 0.984776
vt 0.625000 0.984776
vt 0.250000 0.984776
vt 0.125000 0.984776
vt 0.000000 0.500000
vt 1.000000 0.500000
vt 0.375000 0.500000
vt 0.125000 0.500000
vt 0.250000 0.500000
vt 0.750000 0.500000
vt 0.875000 0.500000
vt 0.500000 0.500000
vt 0.625000 0.500000
vt 0.625000 0.500000
vt 0.500000 0.500000
vt 0.875000 0.500000
vt 0.750000 0.500000
vt 0.250000 0.500000
vt 0.125000 0.500000
vt 0.375000 0.500000
vt 0.000000 0.500000
vt 1.000000 0.500000
vt 0.000000 0.500000
vt 1.000000 0.500000
vt 0.750000 0.490000
vt 0.875000 0.500000
vt 0.919706 0.419706
vt 0.750000 0.500000
vt 0.990000 0.250000
vt 0.625000 0.500000
vt 0.919706 0.080294
vt 0.500000 0.500000
vt 0.750000 0.010000
vt 0.375000 0.500000
vt 0.580294 0.080294
vt 0.250000 0.500000
vt 0.510000 0.250000
vt 0.125000 0.500000
vt 0.580294 0.419706
vt 0.675525 0.175525
vt 0.824475 0.175525
vt 0.824475 0.324475
vt 0.644676 0.250000
vt 0.750000 0.144676
vt 0.855324 0.250000
vt 0.750000 0.355324
vt 0.675525 0.324475
vt 0.790017 0.500000
vt 0.808404 0.500000
vt 0.717243 0.500000
vt 0.614838 0.500000
vt 0.510163 0.500000
vt 0.407757 0.500000
vt 0.316596 0.500000
vt 0.334983 0.500000
vt 0.500000 0.500000
vt 0.375000 0.500000
vt 0.250000 0.500000
vt 0.125000 0.500000
vt 0.000000 0.500000
vt 1.000000 0.500000
vt 0.875000 0.500000
vt 0.750000 0.500000
vt 0.625000 0.500000
vt 0.316596 0.500000
vt 0.614838 0.500000
vt 0.808404 0.500000
vt 0.334983 0.500000
vt 0.407757 0.500000
vt 0.510163 0.500000
vt 0.717243 0.500000
vt 0.790017 0.500000
vt 0.625000 0.500000
vt 0.500000 0.500000
vt 0.875000 0.500000
vt 0.750000 0.500000
vt 0.250000 0.500000
vt 0.125000 0.500000
vt 0.375000 0.500000
vt 1.000000 0.500000
vt 0.000000 0.500000
vt 0.625000 0.500000
vt 0.000000 0.000000
vt 0.500000 0.500000
vt 0.000000 0.000000
vt 0.875000 0.500000
vt 0.000000 0.000000
vt 0.750000 0.500000
vt 0.000000 0.000000
vt 0.250000 0.500000
vt 0.000000 0.000000
vt 0.125000 0.500000
vt 0.000000 0.000000
vt 0.375000 0.500000
vt 0.000000 0.000000
vt 0.000000 0.500000
vt 1.000000 0.500000
vt 0.000000 0.000000
s 0
usemtl M_PCL_Flat_Black_Lighter
f 33/54/1 2/5/1 36/57/1
f 2/5/2 37/58/2 36/57/2
f 37/58/3 28/42/3 38/59/3
f 38/59/4 5/11/4 35/56/4
f 5/11/5 34/55/5 35/56/5
f 34/55/6 31/49/6 39/60/6
f 53/75/7 89/136/7 55/77/7
f 39/60/8 32/51/8 40/61/8
f 32/51/9 33/53/9 40/61/9
f 34/55/10 61/89/10 35/56/10
usemtl M_PCL_Flat_Black
f 14/24/11 15/25/11 65/97/11
usemtl M_PCL_Flat_Black_Lighter
f 40/61/12 57/80/12 64/95/12
f 37/58/13 60/87/13 59/85/13
f 39/60/14 62/91/14 34/55/14
f 36/57/15 59/85/15 58/83/15
f 60/87/16 35/56/16 61/89/16
f 39/60/17 64/95/17 63/93/17
f 21/32/16 28/43/16 20/31/16
f 48/70/16 8/17/16 47/69/16
f 24/35/17 31/50/17 23/34/17
f 18/29/15 27/41/15 2/6/15
f 22/33/10 5/12/10 21/32/10
f 24/35/12 1/3/12 32/52/12
f 18/29/18 1/4/18 17/28/18
f 20/31/13 27/41/13 19/30/13
f 23/34/14 6/14/14 22/33/14
f 45/67/15 29/44/15 26/38/15
f 44/66/17 3/7/17 43/65/17
f 47/69/10 7/15/10 42/64/10
f 45/67/13 25/36/13 48/70/13
f 41/63/18 29/44/18 46/68/18
f 43/65/12 30/47/12 41/62/12
f 42/64/14 4/9/14 44/66/14
f 57/81/18 36/57/18 58/83/18
f 22/33/19 44/66/19 23/34/19
f 24/35/20 41/62/20 17/27/20
f 18/29/21 41/63/21 46/68/21
f 20/31/22 45/67/22 48/70/22
f 22/33/23 47/69/23 42/64/23
f 24/35/24 44/66/24 43/65/24
f 19/30/25 46/68/25 45/67/25
f 20/31/26 47/69/26 21/32/26
f 9/19/27 58/84/27 10/20/27
f 11/21/27 58/84/27 59/86/27
f 11/21/27 60/88/27 12/22/27
f 13/23/27 60/88/27 61/90/27
f 13/23/27 62/92/27 14/24/27
f 15/25/27 62/92/27 63/94/27
f 15/25/27 64/96/27 16/26/27
f 9/19/27 64/96/27 57/82/27
usemtl M_PCL_Flat_Black
f 12/22/28 13/23/28 65/98/28
f 10/20/29 11/21/29 65/99/29
f 15/25/30 16/26/30 65/100/30
f 13/23/31 14/24/31 65/101/31
f 11/21/32 12/22/32 65/102/32
f 9/19/33 10/20/33 65/103/33
f 16/26/34 9/19/34 65/104/34
f 72/111/35 71/110/35 82/122/35
usemtl M_PCL_Flat_Grey_Dark
f 56/79/18 79/119/18 51/73/18
f 50/72/10 75/114/10 55/77/10
f 52/74/15 79/119/15 80/120/15
f 54/76/12 78/117/12 56/78/12
f 52/74/13 81/121/13 49/71/13
f 53/75/17 77/116/17 54/76/17
f 49/71/16 74/113/16 50/72/16
f 55/77/14 76/115/14 53/75/14
f 70/109/7 75/114/7 74/113/7
f 72/111/7 75/114/7 71/110/7
f 72/111/7 77/116/7 76/115/7
f 66/105/7 77/116/7 73/112/7
f 66/105/7 79/119/7 78/118/7
f 68/107/7 79/119/7 67/106/7
f 68/107/7 81/121/7 80/120/7
f 70/109/7 81/121/7 69/108/7
usemtl M_PCL_Flat_Black
f 69/108/36 68/107/36 82/123/36
f 67/106/37 66/105/37 82/124/37
f 73/112/38 72/111/38 82/125/38
f 71/110/39 70/109/39 82/126/39
f 70/109/40 69/108/40 82/127/40
f 68/107/41 67/106/41 82/128/41
f 66/105/42 73/112/42 82/129/42
usemtl M_PCL_Flat_Black_Lighter
f 50/72/7 89/136/7 84/131/7
f 52/74/7 83/130/7 86/133/7
f 50/72/7 83/130/7 49/71/7
f 52/74/7 85/132/7 51/73/7
f 54/76/7 90/138/7 88/135/7
f 56/79/7 85/132/7 90/137/7
f 53/75/7 88/135/7 87/134/7
f 83/130/17 94/145/17 86/133/17
f 83/130/12 92/141/12 91/139/12
f 86/133/14 93/143/14 85/132/14
f 90/138/16 96/149/16 88/135/16
f 85/132/10 98/154/10 90/137/10
f 88/135/13 95/147/13 87/134/13
f 87/134/15 97/151/15 89/136/15
f 89/136/18 92/141/18 84/131/18
f 26/39/7 93/144/7 94/146/7
f 29/45/7 98/155/7 93/144/7
f 30/48/7 96/150/7 98/155/7
f 3/8/7 95/148/7 96/150/7
f 7/16/7 95/148/7 4/10/7
f 8/18/7 97/152/7 7/16/7
f 25/37/7 92/142/7 8/18/7
f 26/39/7 91/140/7 25/37/7
f 33/54/1 1/1/1 2/5/1
f 2/5/2 27/40/2 37/58/2
f 37/58/3 27/40/3 28/42/3
f 38/59/4 28/42/4 5/11/4
f 5/11/5 6/13/5 34/55/5
f 34/55/6 6/13/6 31/49/6
f 53/75/7 87/134/7 89/136/7
f 39/60/8 31/49/8 32/51/8
f 32/51/9 1/2/9 33/53/9
f 34/55/10 62/91/10 61/89/10
f 40/61/12 33/53/12 57/80/12
f 37/58/13 38/59/13 60/87/13
f 39/60/14 63/93/14 62/91/14
f 36/57/15 37/58/15 59/85/15
f 60/87/16 38/59/16 35/56/16
f 39/60/17 40/61/17 64/95/17
f 21/32/16 5/12/16 28/43/16
f 48/70/16 25/36/16 8/17/16
f 24/35/17 32/52/17 31/50/17
f 18/29/15 19/30/15 27/41/15
f 22/33/10 6/14/10 5/12/10
f 24/35/12 17/27/12 1/3/12
f 18/29/18 2/6/18 1/4/18
f 20/31/13 28/43/13 27/41/13
f 23/34/14 31/50/14 6/14/14
f 45/67/15 46/68/15 29/44/15
f 44/66/17 4/9/17 3/7/17
f 47/69/10 8/17/10 7/15/10
f 45/67/13 26/38/13 25/36/13
f 41/63/18 30/46/18 29/44/18
f 43/65/12 3/7/12 30/47/12
f 42/64/14 7/15/14 4/9/14
f 57/81/18 33/54/18 36/57/18
f 22/33/19 42/64/19 44/66/19
f 24/35/20 43/65/20 41/62/20
f 18/29/21 17/28/21 41/63/21
f 20/31/22 19/30/22 45/67/22
f 22/33/23 21/32/23 47/69/23
f 24/35/24 23/34/24 44/66/24
f 19/30/25 18/29/25 46/68/25
f 20/31/26 48/70/26 47/69/26
f 9/19/27 57/82/27 58/84/27
f 11/21/27 10/20/27 58/84/27
f 11/21/27 59/86/27 60/88/27
f 13/23/27 12/22/27 60/88/27
f 13/23/27 61/90/27 62/92/27
f 15/25/27 14/24/27 62/92/27
f 15/25/27 63/94/27 64/96/27
f 9/19/27 16/26/27 64/96/27
usemtl M_PCL_Flat_Grey_Dark
f 56/79/18 78/118/18 79/119/18
f 50/72/10 74/113/10 75/114/10
f 52/74/15 51/73/15 79/119/15
f 54/76/12 77/116/12 78/117/12
f 52/74/13 80/120/13 81/121/13
f 53/75/17 76/115/17 77/116/17
f 49/71/16 81/121/16 74/113/16
f 55/77/14 75/114/14 76/115/14
f 70/109/7 71/110/7 75/114/7
f 72/111/7 76/115/7 75/114/7
f 72/111/7 73/112/7 77/116/7
f 66/105/7 78/118/7 77/116/7
f 66/105/7 67/106/7 79/119/7
f 68/107/7 80/120/7 79/119/7
f 68/107/7 69/108/7 81/121/7
f 70/109/7 74/113/7 81/121/7
usemtl M_PCL_Flat_Black_Lighter
f 50/72/7 55/77/7 89/136/7
f 52/74/7 49/71/7 83/130/7
f 50/72/7 84/131/7 83/130/7
f 52/74/7 86/133/7 85/132/7
f 54/76/7 56/78/7 90/138/7
f 56/79/7 51/73/7 85/132/7
f 53/75/7 54/76/7 88/135/7
f 83/130/17 91/139/17 94/145/17
f 83/130/12 84/131/12 92/141/12
f 86/133/14 94/145/14 93/143/14
f 90/138/16 98/153/16 96/149/16
f 85/132/10 93/143/10 98/154/10
f 88/135/13 96/149/13 95/147/13
f 87/134/15 95/147/15 97/151/15
f 89/136/18 97/151/18 92/141/18
f 26/39/7 29/45/7 93/144/7
f 29/45/7 30/48/7 98/155/7
f 30/48/7 3/8/7 96/150/7
f 3/8/7 4/10/7 95/148/7
f 7/16/7 97/152/7 95/148/7
f 8/18/7 92/142/7 97/152/7
f 25/37/7 91/140/7 92/142/7
f 26/39/7 94/146/7 91/140/7
